<svg class="svg-icon" style="width: 1.275390625em; height: 1em;vertical-align: middle;fill: currentColor;overflow: hidden;" viewBox="0 0 1306 1024" version="1.1" xmlns="http://www.w3.org/2000/svg"><path d="M647.848872 631.167215m-245.125715 171.638873a299.243243 299.243243 0 1 0 490.251429-343.277746 299.243243 299.243243 0 1 0-490.251429 343.277746Z" fill="#FDB201" /><path d="M1004.972973 762.810811H39.783784a34.594595 34.594595 0 1 1 0-69.189189h965.189189a34.594595 34.594595 0 1 1 0 69.189189z" fill="#91E0FC" /><path d="M958.27027 1024H134.918919a34.594595 34.594595 0 1 1 0-69.189189h825.081081a34.594595 34.594595 0 1 1 0 69.189189z" fill="#BFEEFF" /><path d="M1269.621622 892.540541H446.27027a34.594595 34.594595 0 1 1 0-69.18919h823.351352a34.594595 34.594595 0 1 1 0 69.18919z" fill="#AEEAFF" /><path d="M653.837838 205.837838a36.324324 36.324324 0 0 1-36.324324-36.324324V36.324324a36.324324 36.324324 0 0 1 70.918918 0v134.918919a36.324324 36.324324 0 0 1-36.324324 36.324325z m408.216216 406.486486a36.324324 36.324324 0 0 0 36.324324 36.324325h134.918919a36.324324 36.324324 0 1 0 0-70.918919h-136.648648a36.324324 36.324324 0 0 0-36.324325 36.324324z m-814.702703 0a36.324324 36.324324 0 0 1-36.324324 36.324325H76.108108a36.324324 36.324324 0 0 1 0-70.918919h134.918919a36.324324 36.324324 0 0 1 36.324324 36.324324z m698.810811-285.405405a36.324324 36.324324 0 0 1 0-50.162162l77.837838-77.837838a36.324324 36.324324 0 0 1 50.162162 50.162162l-77.837838 77.837838a36.324324 36.324324 0 0 1-50.162162 0z m-582.918919 0a36.324324 36.324324 0 0 0 0-50.162162l-77.837838-77.837838a36.324324 36.324324 0 0 0-50.162162 50.162162l77.837838 77.837838a36.324324 36.324324 0 0 0 50.162162 0z" fill="#FDB201" /></svg>